<svg width="1920" height="960" viewBox="0 0 1920 960" fill="none" xmlns="http://www.w3.org/2000/svg">
<rect width="1920" height="960" fill="url(#dp)"/>
<ellipse cx="300" cy="200" rx="500" ry="400" fill="url(#dp1)" opacity="0.3"/>
<ellipse cx="1700" cy="700" rx="500" ry="400" fill="url(#dp2)" opacity="0.3"/>
<g opacity="0.15">
<rect x="192" y="0" width="1" height="960" fill="#C084FC"/>
<rect x="384" y="0" width="1" height="960" fill="#C084FC"/>
<rect x="576" y="0" width="1" height="960" fill="#C084FC"/>
<rect x="768" y="0" width="1" height="960" fill="#C084FC"/>
<rect x="960" y="0" width="1" height="960" fill="#C084FC"/>
<rect x="1152" y="0" width="1" height="960" fill="#C084FC"/>
<rect x="1344" y="0" width="1" height="960" fill="#C084FC"/>
<rect x="1536" y="0" width="1" height="960" fill="#C084FC"/>
<rect x="1728" y="0" width="1" height="960" fill="#C084FC"/>
<rect x="0" y="192" width="1920" height="1" fill="#C084FC"/>
<rect x="0" y="384" width="1920" height="1" fill="#C084FC"/>
<rect x="0" y="576" width="1920" height="1" fill="#C084FC"/>
<rect x="0" y="768" width="1920" height="1" fill="#C084FC"/>
</g>
<defs>
<linearGradient id="dp" x1="0" y1="0" x2="1920" y2="960" gradientUnits="userSpaceOnUse">
<stop stop-color="#1A0040"/>
<stop offset="0.5" stop-color="#3D0099"/>
<stop offset="1" stop-color="#1A0040"/>
</linearGradient>
<radialGradient id="dp1" cx="50%" cy="50%" r="50%">
<stop stop-color="#9333EA"/>
<stop offset="1" stop-color="#9333EA" stop-opacity="0"/>
</radialGradient>
<radialGradient id="dp2" cx="50%" cy="50%" r="50%">
<stop stop-color="#7C3AED"/>
<stop offset="1" stop-color="#7C3AED" stop-opacity="0"/>
</radialGradient>
</defs>
</svg>
