<svg width="1920" height="960" viewBox="0 0 1920 960" fill="none" xmlns="http://www.w3.org/2000/svg">
<rect width="1920" height="960" fill="url(#g2)"/>
<g opacity="0.3">
<rect opacity="0.5" x="192" y="0" width="1" height="960" fill="#D8B4FE"/>
<rect opacity="0.5" x="384" y="0" width="1" height="960" fill="#D8B4FE"/>
<rect opacity="0.5" x="576" y="0" width="1" height="960" fill="#D8B4FE"/>
<rect opacity="0.5" x="768" y="0" width="1" height="960" fill="#D8B4FE"/>
<rect opacity="0.5" x="960" y="0" width="1" height="960" fill="#D8B4FE"/>
<rect opacity="0.5" x="1152" y="0" width="1" height="960" fill="#D8B4FE"/>
<rect opacity="0.5" x="1344" y="0" width="1" height="960" fill="#D8B4FE"/>
<rect opacity="0.5" x="1536" y="0" width="1" height="960" fill="#D8B4FE"/>
<rect opacity="0.5" x="1728" y="0" width="1" height="960" fill="#D8B4FE"/>
<rect opacity="0.5" x="0" y="192" width="1920" height="1" fill="#D8B4FE"/>
<rect opacity="0.5" x="0" y="384" width="1920" height="1" fill="#D8B4FE"/>
<rect opacity="0.5" x="0" y="576" width="1920" height="1" fill="#D8B4FE"/>
<rect opacity="0.5" x="0" y="768" width="1920" height="1" fill="#D8B4FE"/>
</g>
<defs>
<linearGradient id="g2" x1="1920" y1="0" x2="400" y2="960" gradientUnits="userSpaceOnUse">
<stop stop-color="#EDE9FE"/>
<stop offset="0.3" stop-color="#C4B5FD"/>
<stop offset="0.6" stop-color="#F5F3FF" stop-opacity="0.5"/>
<stop offset="1" stop-color="#7C3AED" stop-opacity="0.4"/>
</linearGradient>
</defs>
</svg>
